<?xml version="1.0" standalone="no"?>
<!DOCTYPE svg PUBLIC "-//W3C//DTD SVG 20010904//EN"
 "http://www.w3.org/TR/2001/REC-SVG-20010904/DTD/svg10.dtd">
<svg version="1.0" xmlns="http://www.w3.org/2000/svg"
 width="56.000000pt" height="56.000000pt" viewBox="0 0 56.000000 56.000000"
 preserveAspectRatio="xMidYMid meet">

<g transform="translate(0.000000,56.000000) scale(0.100000,-0.100000)"
fill="#000000" stroke="none">
<path d="M167 546 c-20 -8 -57 -30 -81 -50 -40 -33 -86 -50 -71 -26 3 5 13 6
23 3 21 -8 14 1 -14 15 -19 10 -20 8 -21 -29 -1 -26 3 -37 11 -32 6 3 6 1 -1
-8 -10 -9 -13 -67 -13 -216 l0 -203 280 0 280 0 0 180 c0 113 -4 180 -10 180
-5 0 -10 -5 -10 -12 0 -6 -2 -9 -5 -6 -9 9 6 38 17 32 5 -4 8 13 6 42 -3 40
-6 48 -25 50 -27 4 -29 -9 -9 -48 11 -22 12 -28 2 -28 -7 0 -18 16 -26 35 -15
38 -54 78 -111 113 -29 18 -51 22 -110 22 -41 -1 -91 -7 -112 -14z m238 -61
c27 -17 51 -37 53 -45 4 -11 1 -10 -12 3 -43 43 -136 71 -202 61 -55 -8 -130
-56 -161 -103 -13 -19 -23 -30 -23 -24 0 5 14 29 32 52 69 94 211 119 313 56z
m-108 -70 c0 -7 -5 -12 -11 -12 -51 1 -68 -5 -73 -23 -3 -11 -10 -20 -15 -20
-5 0 -20 -12 -33 -26 -28 -30 -34 -15 -13 32 19 41 145 84 145 49z m-1 -126
c10 -17 -13 -36 -27 -22 -12 12 -4 33 11 33 5 0 12 -5 16 -11z m-218 -74 c-3
-3 -9 2 -12 12 -6 14 -5 15 5 6 7 -7 10 -15 7 -18z m322 -35 c-11 -21 -41 -40
-62 -40 -7 0 2 14 20 30 38 35 58 40 42 10z m-300 -5 c0 -8 -2 -15 -4 -15 -2
0 -6 7 -10 15 -3 8 -1 15 4 15 6 0 10 -7 10 -15z m111 -95 c19 -6 52 -10 74
-10 33 -1 37 -2 22 -11 -35 -21 -177 28 -177 60 0 11 6 9 23 -7 13 -13 39 -27
58 -32z"/>
<path d="M540 510 c0 -5 5 -10 10 -10 6 0 10 5 10 10 0 6 -4 10 -10 10 -5 0
-10 -4 -10 -10z"/>
</g>
</svg>
